<svg xmlns="http://www.w3.org/2000/svg" viewBox="0 0 480.37 637.48"><defs><style>.cls-1{fill:#482d89;}.cls-2{fill:#fff;}.cls-3{fill:#7252a2;}</style></defs><title>UniVertex</title><g id="Layer_2" data-name="Layer 2"><g id="Layer_1-2" data-name="Layer 1"><path class="cls-1" d="M.19,228.68c0-45.31.1-90.62-.13-135.94,0-5.43,1.86-8.35,6.68-10.1C21.85,77.12,36.9,71.42,52,66q77.68-28,155.39-55.93C216,6.94,224.48,3.45,233.23.91c3.74-1.08,8.44-1.32,12-.05q83.35,29.25,166.52,59c19.54,6.95,39.1,13.86,58.61,20.88,9.36,3.37,9.9,4.25,9.89,13.93,0,89.16.34,178.31-.31,267.46-.23,32.1-7.76,63.1-20.37,92.73-20.62,48.46-55.15,85.32-96.76,116.35-35.52,26.49-74.7,46.42-115,64.48a16.58,16.58,0,0,1-14.36.22c-44.3-19.33-86.82-41.74-125-71.76-34-26.74-62.64-58-82.22-97-11.64-23.19-19-47.73-23-73.31C-1.83,360.93.66,327.74.22,294.66c-.29-22-.06-44-.06-66Zm358.92-95.92c.79,8.33.77,8.26-6.71,11.12q-50.74,19.43-101.45,39c-6.82,2.64-13.45,3.24-20.29.19-3.94-1.75-8-3.17-12.08-4.69q-80.22-30.3-160.47-60.58c-12.38-4.67-24.82-9.19-37.46-13.87-.07,1.38-.17,2.37-.17,3.35,0,59.32-.22,118.64.08,178,.15,30.77.27,61.59,2.12,92.29,2,33,12.34,63.87,29.41,92.26,6.46,10.73,13.86,20.9,20.83,31.32l1.48-.67q0-18.39,0-36.79c0-16.82-.22-33.65.07-50.47.07-3.77.66-8.64,3-11.07,19.34-20,39.13-39.53,58.84-59.16,5.16-5.14,11.07-7.84,18.79-7.44,11.45.59,22.95.15,34.65.15.58-2,1.14-3.74,1.54-5.48,3.18-13.77,6.24-27.57,9.52-41.32,2.51-10.56,6-13,16.73-13,15.83.08,31.65.06,47.47.05,13.82,0,27.65-.11,41.47-.09,9.89,0,13.27,4.36,11.06,13.89q-2,8.47-3.84,17c-2.08,9.48-4.11,19-6.26,28.91,7.26,0,13.91.18,20.55-.05a18.9,18.9,0,0,1,14.84,5.77c20.11,20.15,40.29,40.23,60.28,60.5a11.05,11.05,0,0,1,2.87,7c.11,25.13-.07,50.25-.16,75.38,0,5.7,0,11.39,0,17.09l1.35.22c4-5.46,8.21-10.81,12-16.4,27.08-39.61,40.49-83.65,40.8-131.41.48-72.31.17-144.63.19-216.94V105.22a9.88,9.88,0,0,0-1.9.24c-21.92,8.77-43.86,17.49-65.69,26.47a6.23,6.23,0,0,0-3,4.71c-.21,17.66-.19,35.33,0,53a8.69,8.69,0,0,0,2,5.34c6.4,7.11,6.46,14.85,3.27,23.28a12.49,12.49,0,0,0-.54,6.58c2.91,14.33,6.19,28.58,9.09,42.91,1.42,7-1.36,10.21-8.22,10.23-8.83,0-17.66-.05-26.49,0-9.14.07-11.71-3-9.8-11.91,3-14,6.11-27.92,8.92-41.92A13.6,13.6,0,0,0,367,217c-3-7.88-1.8-14.9,3.08-21.64a10.67,10.67,0,0,0,2-5.8c.16-18.82.13-37.65.09-56.47,0-5.54-2.49-9.46-7.86-11.44-12.33-4.55-24.63-9.18-36.94-13.77q-42-15.67-84.06-31.35c-3.56-1.32-7.05-1.58-8.83,2.66-1.56,3.69.16,6.6,4.78,8.36q33.07,12.6,66.2,25.12Q332.3,122.77,359.11,132.76ZM240.35,428.83H97.44c-3.34,0-6.21,0-6.19,4.9.14,26.64-.12,53.29.22,79.93a16.45,16.45,0,0,0,4.42,10.47c7.69,7.56,15.9,14.65,24.3,21.43,34.82,28.14,74.31,48.4,114.72,67,3.66,1.67,9.52,1.19,13.31-.56,14.93-6.88,29.43-14.69,44.11-22.11a380,380,0,0,0,90.81-63.52c4.42-4.2,6.52-8.53,6.43-14.78-.33-25-.16-49.93-.17-74.9,0-7.71,0-7.78-7.64-7.79Q311.05,428.82,240.35,428.83Zm56.79-47.33c3.54,0,6.68,0,9.82,0,2.66,0,5.4-.2,8,.35,3.91.85,6.62,5.34,6.08,9.22-.61,4.4-4.34,7.51-9.71,7.56-12,.12-24,0-36,0q-54.75.06-109.49.12c-6.27,0-9.49-2.82-9.63-8.27-.14-5.22,3.78-8.88,9.7-9,3.33-.07,6.67.11,10-.09,1.12-.07,3-.75,3.17-1.51,2.53-9.19,4.81-18.44,7.31-28.25-10.5,0-20.15.17-29.78-.07a14.24,14.24,0,0,0-11.13,4.55q-25.73,25.88-51.5,51.7a48,48,0,0,0-3.4,4.44H390.11a37.13,37.13,0,0,0-2.77-3.86q-26.64-26.7-53.41-53.28c-1.66-1.64-4.16-3.24-6.36-3.36-7-.41-14-.21-21,0-1.12,0-3,1.17-3.19,2.1C301.19,362.91,299.25,372,297.14,381.5ZM300.92,292H216.68c-7,30.12-13.92,60.17-21,90.74h4.95c25,0,49.94-.15,74.9.13,4.59,0,5.9-1.71,6.75-5.66,4.47-20.71,9.18-41.37,13.76-62.05C297.72,307.6,299.23,300,300.92,292Z"/><path class="cls-2" d="M359.11,132.76q-26.76-10-53.62-20.12-33.14-12.51-66.2-25.12c-4.62-1.76-6.34-4.67-4.78-8.36,1.78-4.24,5.27-4,8.83-2.66q42,15.65,84.06,31.35c12.31,4.59,24.61,9.22,36.94,13.77,5.37,2,7.85,5.9,7.86,11.44,0,18.82.07,37.65-.09,56.47a10.67,10.67,0,0,1-2,5.8c-4.88,6.74-6.1,13.76-3.08,21.64a13.6,13.6,0,0,1,.72,7.19c-2.81,14-5.92,28-8.92,41.92-1.91,8.91.66,12,9.8,11.91,8.83-.07,17.66,0,26.49,0,6.86,0,9.64-3.21,8.22-10.23-2.9-14.33-6.18-28.58-9.09-42.91a12.49,12.49,0,0,1,.54-6.58c3.19-8.43,3.13-16.17-3.27-23.28a8.69,8.69,0,0,1-2-5.34c-.14-17.66-.16-35.33,0-53a6.23,6.23,0,0,1,3-4.71c21.83-9,43.77-17.7,65.69-26.47a9.88,9.88,0,0,1,1.9-.24v31.53c0,72.31.29,144.63-.19,216.94-.31,47.76-13.72,91.8-40.8,131.41-3.83,5.59-8,10.94-12,16.4l-1.35-.22c0-5.7,0-11.39,0-17.09.09-25.13.27-50.25.16-75.38a11.05,11.05,0,0,0-2.87-7c-20-20.27-40.17-40.35-60.28-60.5A18.9,18.9,0,0,0,328,335.53c-6.64.23-13.29.05-20.55.05,2.15-9.94,4.18-19.43,6.26-28.91q1.86-8.51,3.84-17c2.21-9.53-1.17-13.87-11.06-13.89-13.82,0-27.65.08-41.47.09-15.82,0-31.64,0-47.47-.05-10.78-.05-14.22,2.43-16.73,13-3.28,13.75-6.34,27.55-9.52,41.32-.4,1.74-1,3.44-1.54,5.48-11.7,0-23.2.44-34.65-.15-7.72-.4-13.63,2.3-18.79,7.44-19.71,19.63-39.5,39.17-58.84,59.16-2.35,2.43-2.94,7.3-3,11.07-.29,16.82-.08,33.65-.07,50.47q0,18.39,0,36.79l-1.48.67c-7-10.42-14.37-20.59-20.83-31.32C35,441.36,24.66,410.48,22.68,377.49c-1.85-30.7-2-61.52-2.12-92.29-.3-59.31-.09-118.63-.08-177.95,0-1,.1-2,.17-3.35,12.64,4.68,25.08,9.2,37.46,13.87Q138.36,148,218.58,178.35c4,1.52,8.14,2.94,12.08,4.69,6.84,3.05,13.47,2.45,20.29-.19q50.69-19.59,101.45-39C359.88,141,359.9,141.09,359.11,132.76Zm.21,19.69c-1.93.63-3.18,1-4.38,1.45-34.07,13.23-68.16,26.38-102.17,39.75-8,3.14-15.48,3.57-23.63.31-27.61-11-55.36-21.73-83.09-32.48-8.31-3.22-16.71-6.23-25.44-9.47-.18,1.61-.37,2.56-.38,3.51,0,14.83.41,29.67-.17,44.47-.43,11.06,4.81,18,13.38,23.81,19.72,13.28,41.78,20.18,64.93,24a263,263,0,0,0,92.28-1.25c21.23-4,41.5-10.82,58.77-24.48,4.86-3.85,9.75-8.09,9.83-14.92C359.45,189.17,359.32,171.19,359.32,152.45Z"/><path class="cls-3" d="M240.35,428.84q70.7,0,141.41,0c7.65,0,7.64.08,7.64,7.79,0,25-.16,49.94.17,74.9.09,6.25-2,10.58-6.43,14.78a380,380,0,0,1-90.81,63.52c-14.68,7.42-29.18,15.23-44.11,22.11-3.79,1.75-9.65,2.23-13.31.56C194.5,594,155,573.7,120.19,545.56c-8.4-6.78-16.61-13.87-24.3-21.43a16.45,16.45,0,0,1-4.42-10.47c-.34-26.64-.08-53.29-.22-79.93,0-4.86,2.85-4.9,6.19-4.9H240.35Z"/><path class="cls-2" d="M297.14,381.5c2.11-9.51,4.05-18.59,6.26-27.6.23-.93,2.07-2.06,3.19-2.1,7-.21,14-.41,21,0,2.2.12,4.7,1.72,6.36,3.36q26.83,26.5,53.41,53.28a37.13,37.13,0,0,1,2.77,3.86H90.53a48,48,0,0,1,3.4-4.44q25.72-25.87,51.5-51.7a14.24,14.24,0,0,1,11.13-4.55c9.63.24,19.28.07,29.78.07-2.5,9.81-4.78,19.06-7.31,28.25-.21.76-2.05,1.44-3.17,1.51-3.32.2-6.66,0-10,.09-5.92.12-9.84,3.78-9.7,9,.14,5.45,3.36,8.28,9.63,8.27q54.75,0,109.49-.12c12,0,24,.08,36,0,5.37-.05,9.1-3.16,9.71-7.56.54-3.88-2.17-8.37-6.08-9.22-2.55-.55-5.29-.31-8-.35C303.82,381.46,300.68,381.5,297.14,381.5Z"/><path class="cls-3" d="M300.92,292c-1.69,8-3.2,15.62-4.87,23.16-4.58,20.68-9.29,41.34-13.76,62.05-.85,3.95-2.16,5.71-6.75,5.66-25-.28-49.93-.13-74.9-.13h-4.95c7.07-30.57,14-60.62,21-90.74ZM239,349.89c-2.74-3.47-4.79-6.79-7.56-9.32-1.7-1.55-4.77-3-6.74-2.47-2.3.56-5.34,3-5.78,5.09a13.1,13.1,0,0,0,1.79,9.16c3.64,5.3,8.21,10,12.41,14.89,3.94,4.59,6.38,4.81,10.6.43q18-18.68,35.75-37.53c3.18-3.36,3.1-7,0-10-4.4-4.22-7.59-4.62-11.17-1-5.14,5.2-10.07,10.6-15.11,15.89C248.57,339.92,243.89,344.8,239,349.89Z"/><path class="cls-1" d="M359.32,152.45c0,18.74.13,36.72-.07,54.69-.08,6.83-5,11.07-9.83,14.92-17.27,13.66-37.54,20.44-58.77,24.48a263,263,0,0,1-92.28,1.25c-23.15-3.81-45.21-10.71-64.93-24-8.57-5.76-13.81-12.75-13.38-23.81.58-14.8.15-29.64.17-44.47,0-1,.2-1.9.38-3.51,8.73,3.24,17.13,6.25,25.44,9.47,27.73,10.75,55.48,21.44,83.09,32.48,8.15,3.26,15.66,2.83,23.63-.31,34-13.37,68.1-26.52,102.17-39.75C356.14,153.43,357.39,153.08,359.32,152.45Z"/><path class="cls-2" d="M239,349.89c4.87-5.09,9.55-10,14.21-14.87,5-5.29,10-10.69,15.11-15.89,3.58-3.62,6.77-3.22,11.17,1,3.08,3,3.16,6.65,0,10Q261.67,349,243.74,367.67c-4.22,4.38-6.66,4.16-10.6-.43-4.2-4.92-8.77-9.59-12.41-14.89a13.1,13.1,0,0,1-1.79-9.16c.44-2.09,3.48-4.53,5.78-5.09,2-.49,5,.92,6.74,2.47C234.23,343.1,236.28,346.42,239,349.89Z"/></g></g></svg>